<svg xmlns="http://www.w3.org/2000/svg" viewBox="0 0 203.7109 94.8185"><path d="M101.4492,45.02946a19.47456,19.47456,0,0,0,2.56348-.46875l-1.37891,6.60938a19.825,19.825,0,0,1-5.2373.72265,21.5029,21.5029,0,0,1-5.07129-.5874q-2.42726-.58814-4.65821-1.25928-2.23388-.67162-4.27246-1.25928a14.47776,14.47776,0,0,0-4.02441-.5874,9.39591,9.39591,0,0,0-2.48145.33057l1.37891-6.50537a14.706,14.706,0,0,1,3.08691-.33057,16.5039,16.5039,0,0,1,4.27246.55127q2.06689.55078,4.18946,1.18555,2.12256.6328,4.38281,1.18506a20.47331,20.47331,0,0,0,4.85156.55127A21.87784,21.87784,0,0,0,101.4492,45.02946ZM176.39549,39.985l2.37012-11.41162h2.20507L184.94041,39.985h7.27637l-4.18945-12.294-2.48047-2.09473,3.30761-2.09472,8.21387-11.08106h-7.55273l-7.77246,11.02588-2.04.7168,4.85156-22.76856h-6.78125L169.61424,39.985Zm-28.05957-5.127a8.52819,8.52819,0,0,0,1.709,3.03223,8.00956,8.00956,0,0,0,3.00489,2.09473,11.652,11.652,0,0,0,4.49218.772,13.53606,13.53606,0,0,0,4.65918-.85449,15.8517,15.8517,0,0,0,4.10645-2.17774L165.04,33.09391a15.12289,15.12289,0,0,1-2.50879,1.18506,8.67306,8.67306,0,0,1-3.05957.52393A3.94913,3.94913,0,0,1,156.2744,33.342a6.54078,6.54078,0,0,1-1.2129-4.27246,14.22193,14.22193,0,0,1,.66114-4.30029,12.86709,12.86709,0,0,1,1.792-3.666,10.37143,10.37143,0,0,1,2.53613-2.53564,5.06092,5.06092,0,0,1,2.89453-.96485,12.86436,12.86436,0,0,1,2.45313.22071,7.02558,7.02558,0,0,1,2.17773.82666l2.53516-5.40235a20.0908,20.0908,0,0,0-2.72852-1.103,13.65317,13.65317,0,0,0-4.10742-.49609,12.93728,12.93728,0,0,0-5.70508,1.35059,15.525,15.525,0,0,0-4.96191,3.85937,19.34642,19.34642,0,0,0-3.501,6.147,24.101,24.101,0,0,0-1.32324,8.26905A11.57647,11.57647,0,0,0,148.33592,34.85807ZM144.42186,8.39616a4.57272,4.57272,0,0,0,3.0039-1.02A3.40978,3.40978,0,0,0,148.666,4.59245a3.39382,3.39382,0,0,0-1.24024-2.812,4.66018,4.66018,0,0,0-3.0039-.99219,4.52366,4.52366,0,0,0-3.00489.99219,3.46143,3.46143,0,0,0-1.18554,2.812A3.47742,3.47742,0,0,0,141.417,7.37614,4.43974,4.43974,0,0,0,144.42186,8.39616Zm1.48828,4.02441h-6.78125L133.28514,39.985h6.78125ZM74.79393,36.92546q-3.47315-3.8313-3.52832-11.38428a32.57906,32.57906,0,0,1,1.40625-9.67529,25.15308,25.15308,0,0,1,3.99707-7.93848,19.15394,19.15394,0,0,1,6.25683-5.34717A17.11089,17.11089,0,0,1,91.11229.62272a15.49826,15.49826,0,0,1,5.375.88233,10.1905,10.1905,0,0,1,4.0791,2.729,12.84913,12.84913,0,0,1,2.61914,4.6582,21.1931,21.1931,0,0,1,.9375,6.67041,33.04373,33.04373,0,0,1-1.40625,9.7583A26.19094,26.19094,0,0,1,98.748,33.342a19.31891,19.31891,0,0,1-6.12012,5.43018A15.84114,15.84114,0,0,1,84.77244,40.757Q78.26708,40.757,74.79393,36.92546ZM78.81834,25.321a11.63192,11.63192,0,0,0,1.5166,6.33936,5.46687,5.46687,0,0,0,4.98828,2.37061,7.59462,7.59462,0,0,0,4.60352-1.51612,13.12546,13.12546,0,0,0,3.55566-4.0791,21.83348,21.83348,0,0,0,2.28809-5.87158,29.26819,29.26819,0,0,0,.7998-6.89111q0-4.35426-1.709-6.33985A5.86071,5.86071,0,0,0,90.17479,7.3488a7.81326,7.81326,0,0,0-4.54786,1.4331,12.86878,12.86878,0,0,0-3.583,3.88672,20.80712,20.80712,0,0,0-2.3711,5.7334A27.31823,27.31823,0,0,0,78.81834,25.321ZM107.32029,39.4611a6.44894,6.44894,0,0,0,4.18946,1.2959,9.63286,9.63286,0,0,0,3.11523-.49609,11.569,11.569,0,0,0,2.70117-1.32325,14.78212,14.78212,0,0,0,2.25977-1.84668,18.24356,18.24356,0,0,0,1.792-2.06738h.2207L121.874,39.985h5.458q-.05567-.93677,0-2.37061.05421-1.43262.22071-3.00439.16553-1.57106.35839-3.05957a22.9265,22.9265,0,0,1,.46778-2.59131l3.47363-16.53858h-6.78125L121.543,29.40007a13.13061,13.13061,0,0,1-2.86621,3.4458,8.90568,8.90568,0,0,1-1.84668,1.21289,4.32961,4.32961,0,0,1-1.90234.46826,1.78372,1.78372,0,0,1-1.54395-.606,2.866,2.866,0,0,1-.44043-1.709,14.53007,14.53007,0,0,1,.33106-2.75684l3.583-17.03467h-6.78125l-3.80371,17.80664a20.28616,20.28616,0,0,0-.55078,4.46534Q105.72166,38.1657,107.32029,39.4611Zm15.32422,16.38135a3.89415,3.89415,0,0,0,0,5.5957,4.43968,4.43968,0,0,0,3.00489,1.02,4.57267,4.57267,0,0,0,3.0039-1.02,3.77589,3.77589,0,0,0,0-5.5957,4.66024,4.66024,0,0,0-3.0039-.99219A4.5237,4.5237,0,0,0,122.64451,55.84245ZM93.64744,62.89909a18.04073,18.04073,0,0,1,1.0752,6.56006,35.59649,35.59649,0,0,1-.41309,5.21,29.99121,29.99121,0,0,1-1.40625,5.5957,24.06682,24.06682,0,0,1-2.72851,5.40235,19.01215,19.01215,0,0,1-4.35547,4.57617,21.47107,21.47107,0,0,1-6.28418,3.19726,27.17458,27.17458,0,0,1-8.51758,1.21289q-.82764,0-1.6543-.02734c-.55078-.01953-.93652-.02734-1.15722-.02734q-1.103-.05566-2.45313-.13868-1.35205-.082-2.70117-.165-1.35205-.082-2.0127-.19336l8.15918-38.645q1.15724-.16554,2.53614-.27539,1.377-.10988,2.56347-.16553,1.18506-.05419,2.06739-.05518.49511,0,1.40527-.02734.90966-.0271,2.01269-.02783a20.62081,20.62081,0,0,1,6.11915.85449,12.45253,12.45253,0,0,1,4.71386,2.61865A11.68292,11.68292,0,0,1,93.64744,62.89909ZM87.1699,70.45231q0-4.41064-1.84668-6.61572Q83.47606,61.632,79.17674,61.631q-1.10449,0-2.31543.05518a16.94641,16.94641,0,0,0-1.875.16553l-5.457,25.91015a3.96432,3.96432,0,0,0,.68847.083c.3125.01953.65235.03711,1.02051.05566.36621.01856.7168.02735,1.04688.02735h.77246a11.88272,11.88272,0,0,0,6.55957-1.73633A14.36894,14.36894,0,0,0,84,81.8361a18.53412,18.53412,0,0,0,2.42578-5.67871A24.21963,24.21963,0,0,0,87.1699,70.45231ZM114.51268,94.047h6.78125l5.84375-27.56445h-6.78125Zm34.84179-28.33643a10.72171,10.72171,0,0,0-3.55566.55127,13.139,13.139,0,0,0-2.83887,1.37842,12.98911,12.98911,0,0,0-2.2334,1.81885q-.96386.99317-1.68066,1.875h-.2207l.27539-4.85156h-5.127L128.12986,94.047h6.78125l3.52832-16.56738a14.76839,14.76839,0,0,1,1.32325-2.05664,14.49825,14.49825,0,0,1,1.65332-1.8379,7.94505,7.94505,0,0,1,1.874-1.3164,4.42525,4.42525,0,0,1,1.98535-.49414,2.11173,2.11173,0,0,1,1.81934.68554,3.18424,3.18424,0,0,1,.49609,1.89258,12.97445,12.97445,0,0,1-.33105,2.68848L143.62108,94.047h6.78125l3.96875-18.68848a13.24759,13.24759,0,0,0,.35839-2.04q.08351-.936.083-1.76367,0-3.14355-1.48828-4.49365A5.68333,5.68333,0,0,0,149.35447,65.71061Zm23.42969,13.94776,3.30762-2.09473,8.21387-11.08105h-7.55274L168.98045,77.508l-2.04.71679L171.792,55.45671h-6.78125L156.85154,94.047h6.78125l2.37012-11.41211H168.208L172.17772,94.047h7.27636l-4.18945-12.29395Zm20.31445-7.71289a5.40783,5.40783,0,0,1,2.78418-.61133,15.23282,15.23282,0,0,1,3.28028.34668,12.78226,12.78226,0,0,1,2.67383.86621l1.874-5.18262a11.5865,11.5865,0,0,0-3.30762-1.18506,24.88024,24.88024,0,0,0-5.292-.46875,13.31488,13.31488,0,0,0-4.16211.60645,9.22341,9.22341,0,0,0-3.14258,1.709,7.689,7.689,0,0,0-2.01269,2.646,7.89309,7.89309,0,0,0-.7168,3.36328,7.0792,7.0792,0,0,0,.66211,3.19727,8.07834,8.07834,0,0,0,1.68164,2.28808,14.817,14.817,0,0,0,2.17676,1.709q1.15869.74414,2.17773,1.46679A8.56082,8.56082,0,0,1,193.457,84.2238a2.92351,2.92351,0,0,1,.66211,1.917,2.8077,2.8077,0,0,1-1.07519,2.30566,4.93784,4.93784,0,0,1-2.94922.749,13.57826,13.57826,0,0,1-3.667-.48438,12.7409,12.7409,0,0,1-2.83887-1.11426l-2.14942,5.40235a12.16973,12.16973,0,0,0,3.61036,1.2959,23.67636,23.67636,0,0,0,5.15429.52343,12.92057,12.92057,0,0,0,7.93946-2.23242q2.97656-2.23242,2.97656-6.80859a7.27287,7.27287,0,0,0-.66113-3.22461,9.25014,9.25014,0,0,0-1.68164-2.39844,12.48107,12.48107,0,0,0-2.17774-1.792q-1.15722-.74415-2.17773-1.4668a11.493,11.493,0,0,1-1.68164-1.41894,2.23654,2.23654,0,0,1-.66114-1.585A2.09989,2.09989,0,0,1,193.09861,71.94548ZM116.333,66.4904a10.45791,10.45791,0,0,0-2.75586-.44873,6.28427,6.28427,0,0,0-4.38281,1.57177,14.18969,14.18969,0,0,0-2.9502,3.81836h-.21972l-.05567-4.94921h-5.0166L95.10838,94.047h6.78125l3.583-17.11426a10.04849,10.04849,0,0,1,2.89453-3.373,6.70457,6.70457,0,0,1,4.16211-1.4541,4.842,4.842,0,0,1,1.04785.11035c.33008.07422.67969.165,1.04687.27539ZM3.54881,80.59489H1.655a1.65509,1.65509,0,0,0,0,3.31018h1.8938a1.65509,1.65509,0,0,0,0-3.31018Zm9.6709-44.53735h1.89355a1.65516,1.65516,0,1,0,0-3.31031H13.21971a1.65516,1.65516,0,0,0,0,3.31031ZM58.80784,1.59733c-.38843-.12915-.77026-.2771-1.155-.4165Q55.52953.667,53.40623.15348c-.31274-.03393-.62866-.05078-.93774-.1051-1.28687-.22656-2.21363.34583-2.20679,1.64124a8.32623,8.32623,0,0,1-.8269,2.97485,1.842,1.842,0,0,0-.2544,1.09131,4.09576,4.09576,0,0,1-.406,2.74878c-.43311,1.00964-.3545,1.08386.68017,1.30908.63648.13867,1.26709.30371,1.896.47693-.75464-.07446-1.48682-.27-2.249-.31677a1.23291,1.23291,0,0,0-1.35913.77465q-1.2495,2.70924-2.49975,5.41785h9.40869a1.72631,1.72631,0,0,1,0,3.4458l-23.082-.00012a1.72618,1.72618,0,0,0,0,3.44556H54.81541a1.72624,1.72624,0,0,1,0,3.44568H40.404q-.74377,1.66131-1.49829,3.318c-.01123.0249-.02343.04907-.03466.07373l14.6538.017a1.51288,1.51288,0,0,1-.00293,3.01587l-33.42871-.01807a1.51288,1.51288,0,0,0-.00293,3.01587l24.31226.00744a1.5128,1.5128,0,0,1-.00293,3.01575l-24.31226-.00732a1.51275,1.51275,0,0,0-.00293,3.01562l27.14234.01074a1.51288,1.51288,0,0,1-.00293,3.01587L31.1909,44.965q-.32007,1.4729-.65723,2.94153H51.25291a1.42449,1.42449,0,0,1,0,2.83459H15.72508a1.42456,1.42456,0,0,0,0,2.83472H42.06981a1.42456,1.42456,0,0,1,0,2.83471H28.47459c-1.07935,4.29444-2.187,8.58228-3.21069,12.89014-.6565,2.76294-1.32422,5.52295-2.06665,8.26367H45.23143a1.49494,1.49494,0,0,1,0,2.98218H8.24339a1.49479,1.49479,0,0,0,0,2.98193l27.04224.00025a1.49481,1.49481,0,0,1,0,2.98193H21.54637c.00488.03674.00635.073.01172.10986a3.4636,3.4636,0,0,0,1.96313,2.71363,28.24916,28.24916,0,0,0,5.44483,2.19092,53.37118,53.37118,0,0,0,12.24047,2.50109c3.304.18323,4.67969-.82617,5.75586-3.98718.65723-1.92993.7168-3.98205,1.25977-5.93457,1.80566-6.49182,3.28271-13.0664,4.92456-19.59949C54.5952,58.74137,56.072,52.985,57.53514,47.225a14.09444,14.09444,0,0,0-.05469-7.32959,20.52014,20.52014,0,0,1-.57568-6.85572c.22754-3.84912.56152-7.69567.65356-11.54809.09131-3.82276.37744-7.6344.46875-11.45508a2.48794,2.48794,0,0,1,.66968-1.81421,1.30741,1.30741,0,0,0,.36572-.64575A34.34075,34.34075,0,0,1,59.873,3.23381C60.1223,2.40763,59.6035,1.8621,58.80784,1.59733ZM22.59471,23.05754h1.89355a1.65516,1.65516,0,1,0,0-3.31031H22.59471a1.65516,1.65516,0,0,0,0,3.31031Z" fill="#f0e406"/></svg>